<svg width="13" height="16" viewBox="0 0 13 16" fill="none" xmlns="http://www.w3.org/2000/svg">
<path d="M10.014 4.25V3.54167C10.014 1.5856 8.41282 0 6.43756 0C4.4623 0 2.86114 1.5856 2.86114 3.54167V4.25H0V13.875C0 15.0491 0.96027 16 2.14585 16H10.7293C11.9149 16 12.8751 15.0491 12.8751 13.875V4.25H10.014ZM4.29171 3.54167C4.29171 2.36814 5.25251 1.41667 6.43756 1.41667C7.62261 1.41667 8.58342 2.36814 8.58342 3.54167V4.25H4.29171V3.54167ZM11.4446 13.875C11.4446 14.2664 11.1245 14.5833 10.7293 14.5833H2.14585C1.75066 14.5833 1.43057 14.2664 1.43057 13.875V5.66667H11.4446V13.875Z" fill="white"/>
</svg>
