<svg width="113" height="11" viewBox="0 0 113 11" fill="none" xmlns="http://www.w3.org/2000/svg">
<path fill-rule="evenodd" clip-rule="evenodd" d="M23.5015 1.61974C24.8358 0.610506 26.7961 0.00815011 29.3403 0.00815011C34.2441 0.00815011 38.6165 2.25141 42.7474 4.44904C47.0489 2.25476 51.5969 0.00815011 56.1611 0.00815011C60.8682 0.00815011 63.8918 2.46696 63.9844 5.47548C64.03 6.95919 63.3193 8.37677 61.9672 9.39064C60.6263 10.3961 58.6735 11 56.1611 11C51.2733 11 46.8937 8.70755 42.7304 6.49021C38.3976 8.70312 33.851 11 29.3403 11C24.7264 11 21.6935 8.53588 21.5442 5.55051C21.47 4.06618 22.1524 2.64017 23.5015 1.61974ZM40.7735 5.45385C37.0113 3.48867 33.3485 1.82653 29.3403 1.82653C27.0497 1.82653 25.4987 2.37085 24.559 3.08164C23.634 3.78124 23.2797 4.6486 23.3202 5.45764C23.4003 7.05901 25.2023 9.18162 29.3403 9.18162C33.0075 9.18162 36.7842 7.46674 40.7735 5.45385ZM44.7043 5.48729C48.5073 7.48298 52.1709 9.18162 56.1611 9.18162C58.4129 9.18162 59.9626 8.63886 60.9156 7.92427C61.8574 7.21812 62.2319 6.34233 62.207 5.53267C62.1584 3.95445 60.4177 1.82653 56.1611 1.82653C52.4403 1.82653 48.6515 3.50555 44.7043 5.48729Z" fill="black"/>
<path fill-rule="evenodd" clip-rule="evenodd" d="M0 0H1.79424V9.09703H18.989V10.9317H0V0Z" fill="black"/>
<path d="M67.6576 10.7788V0.152891H69.7509V6.87282L84.6677 0.152899H88.3763L75.9382 5.75618L89.5781 10.8553H85.2236L73.9634 6.64582L69.7509 8.54353V10.7788H67.6576Z" fill="black"/>
<path fill-rule="evenodd" clip-rule="evenodd" d="M92.0387 3.14706C92.0524 1.45041 93.5421 0.0764456 95.842 0.0764456H111.99V1.60536H96.2906C94.5536 1.60536 93.9874 2.54388 93.9824 3.1597C93.9775 3.76162 94.5108 4.70141 96.2906 4.70141H108.785C111.117 4.70141 112.602 6.0741 112.588 7.78466C112.574 9.48132 111.085 10.8553 108.785 10.8553H92.6367V9.32637H108.336C110.073 9.32637 110.639 8.38785 110.644 7.77202C110.649 7.1701 110.116 6.23032 108.336 6.23032H95.842C93.5101 6.23032 92.0248 4.85763 92.0387 3.14706Z" fill="black"/>
</svg>
